# xmcd
#
# Track frame offsets: 
#        150
#        1738
#        12152
#        14114
#        24298
#        28019
#        28923
#        38823
#        47989
#        52782
#        60623
#        76213
#        83265
#        89437
#        96863
#        108131
#
# Disc length: 1451 seconds
#
# Revision: 0
# Processed by: cddbd v1.5.2PL0 Copyright (c) Steve Scherf et al.
# Submitted via: ExactAudioCopy v1.0b1
#
DISCID=ae05a910
DTITLE=Cornelis Vreeswijk - Black Girl
DYEAR=2002
DGENRE=Blues
TTITLE0=Nya Gatan
TTITLE1=1984
TTITLE2=Black Girl
TTITLE3=Felivia adjo
TTITLE4=Polaren Per hos polisen
TTITLE5=Getinghonung a la flammande
TTITLE6=Polaren Per hos det sociala
TTITLE7=Till Linnea via Leonard Cohen
TTITLE8=Sambaliten
TTITLE9=Sportiga MArie
TTITLE10=Taltet
TTITLE11=Didres samba
TTITLE12=Getinghonung Provencale
TTITLE13=Polaren Par vid morgonstadningen
TTITLE14=Somliga gar med trasiga skor
TTITLE15=Mordar-Anders
EXTD=
EXTT0=
EXTT1=
EXTT2=
EXTT3=
EXTT4=
EXTT5=
EXTT6=
EXTT7=
EXTT8=
EXTT9=
EXTT10=
EXTT11=
EXTT12=
EXTT13=
EXTT14=
EXTT15=
PLAYORDER=
